HIERARCHY
ROOT Hips
{
	OFFSET 0.00000 0.00000 0.00000
	CHANNELS 6 Xposition Yposition Zposition Zrotation Yrotation Xrotation 
	JOINT LHipJoint
	{
		OFFSET 0 0 0
		CHANNELS 3 Zrotation Yrotation Xrotation
		JOINT LeftHip
		{
			OFFSET 1.28858 -1.83292 1.03970
			CHANNELS 3 Zrotation Yrotation Xrotation
			JOINT LeftKnee
			{
				OFFSET 2.47846 -6.80952 0.00000
				CHANNELS 3 Zrotation Yrotation Xrotation
				JOINT LeftAnkle
				{
					OFFSET 2.75274 -7.56311 0.00000
					CHANNELS 3 Zrotation Yrotation Xrotation
					JOINT LeftToe
					{
						OFFSET 0.12848 -0.35301 1.68223
						CHANNELS 3 Zrotation Yrotation Xrotation
						End Site
						{
							OFFSET 0.00000 -0.00000 0.87311
						}
					}
				}
			}
		}
	}
	JOINT RHipJoint
	{
		OFFSET 0 0 0
		CHANNELS 3 Zrotation Yrotation Xrotation
		JOINT RightHip
		{
			OFFSET -1.31183 -1.83292 1.03970
			CHANNELS 3 Zrotation Yrotation Xrotation
			JOINT RightKnee
			{
				OFFSET -2.44740 -6.72417 0.00000
				CHANNELS 3 Zrotation Yrotation Xrotation
				JOINT RightAnkle
				{
					OFFSET -2.67343 -7.34519 0.00000
					CHANNELS 3 Zrotation Yrotation Xrotation
					JOINT RightToe
					{
						OFFSET -0.16914 -0.46471 1.77626
						CHANNELS 3 Zrotation Yrotation Xrotation
						End Site
						{
							OFFSET -0.00000 -0.00000 0.92777
						}
					}
				}
			}
		}
	}
	JOINT lowerback
	{
		OFFSET 0 0 0
		CHANNELS 3 Zrotation Yrotation Xrotation
		JOINT Chest
		{
			OFFSET 0.01249 2.14252 0.03842
			CHANNELS 3 Zrotation Yrotation Xrotation
			JOINT Chest2
			{
				OFFSET -0.02957 2.14199 -0.03751
				CHANNELS 3 Zrotation Yrotation Xrotation
				JOINT lowerneck
				{
					OFFSET 0 0 0
					CHANNELS 3 Zrotation Yrotation Xrotation
					JOINT Neck
					{
						OFFSET -0.01678 1.65709 -0.05476
						CHANNELS 3 Zrotation Yrotation Xrotation
						JOINT Head
						{
							OFFSET 0.07912 1.58331 -0.11843
							CHANNELS 3 Zrotation Yrotation Xrotation
							End Site
							{
								OFFSET 0.03298 1.73940 -0.04271
							}
						}
					}
				}
				JOINT LeftCollar
				{
					OFFSET 0 0 0
					CHANNELS 3 Zrotation Yrotation Xrotation
					JOINT LeftShoulder
					{
						OFFSET 3.39556 1.16496 0.08673
CHANNELS 3 Zrotation Xrotation Yrotation
						JOINT LeftElbow
						{
OFFSET 0 -5.239100 -0.000000
CHANNELS 3 Zrotation Xrotation Yrotation
							JOINT LeftWrist
							{
OFFSET 0 -3.314670 0.000000
CHANNELS 3 Zrotation Xrotation Yrotation
								JOINT lhand
								{
									OFFSET 0 0 0
CHANNELS 3 Zrotation Xrotation Yrotation
									JOINT LFingers
									{
OFFSET 0 -0.965900 0.000000
CHANNELS 3 Zrotation Xrotation Yrotation
										End Site
										{
OFFSET 0 -0.778730 0.000000
										}
									}
								}
								JOINT LThumb
								{
OFFSET 0 0.000000 0.000000
CHANNELS 3 Zrotation Xrotation Yrotation
									End Site
									{
OFFSET 0 -0.790620 0.790620
									}
								}
							}
						}
					}
				}
				JOINT RightCollar
				{
					OFFSET 0 0 0
					CHANNELS 3 Zrotation Yrotation Xrotation
					JOINT RightShoulder
					{
						OFFSET -3.27193 1.31331 0.33940
CHANNELS 3 Zrotation Xrotation Yrotation
						JOINT RightElbow
						{
OFFSET 0 -5.302520 0.000000
CHANNELS 3 Zrotation Xrotation Yrotation
							JOINT RightWrist
							{
OFFSET 0 -3.678750 0.000000
CHANNELS 3 Zrotation Xrotation Yrotation
								JOINT rhand
								{
									OFFSET 0 0 0
CHANNELS 3 Zrotation Xrotation Yrotation
									JOINT RFingers
									{
OFFSET 0 -0.594810 0.000000
CHANNELS 3 Zrotation Xrotation Yrotation
										End Site
										{
OFFSET 0 -0.479550 0.000000
										}
									}
								}
								JOINT RThumb
								{
OFFSET 0 0.000000 0.000000
CHANNELS 3 Zrotation Xrotation Yrotation
									End Site
									{
OFFSET 0 -0.486870 0.486870
									}
								}
							}
						}
					}
				}
			}
		}
	}
}
MOTION
Frames: 8
Frame Time: 0.008333333333333333
9.706200 17.479300 29.236100 -176.614000 -3.396200 -177.578000 0.000000 0.000000 0.000000 4.909900 -7.951500 13.427300 0.043900 -1.352200 -3.718300 2.404600 -12.231300 -27.986500 8.387100 16.396700 53.945400 0.000000 0.000000 0.000000 11.189400 15.603800 22.279800 -0.072300 1.734800 -4.773300 -4.708000 -18.723600 -49.883900 -0.670800 -5.237400 14.586800 1.669500 -0.683100 -12.087000 0.173700 -1.270900 -1.007900 -0.978000 -0.640000 5.691200 -1.705300 -2.704700 3.028100 3.187400 -3.609200 -5.963200 1.412900 -1.888000 -2.311700 0.000000 -0.000000 0.000000 9.002100 2.142400 -53.533300 9.898600 -16.580800 1.445900 -0.829200 -5.135200 11.567600 0.000000 0.000000 0.000000 -7.125000 0.000000 0.000000 -19.365700 18.720900 -12.880300 0.000000 -0.000000 0.000000 -6.268100 11.132900 31.396300 -11.941900 -19.717500 -2.082700 -9.021000 26.020100 43.888800 0.000000 0.000000 0.000000 7.125000 0.000000 -0.000000 42.918500 69.862000 -27.166300
9.709516 17.481837 29.233842 -176.399726 -3.458760 -177.614992 0.000000 0.000000 0.000000 5.101299 -8.216093 13.514993 0.043043 -1.339589 -3.683743 2.436867 -11.874040 -28.149341 8.239474 16.292352 53.420267 0.000000 0.000000 0.000000 11.541104 15.813111 22.299954 -0.066323 1.661319 -4.570537 -4.770188 -18.468671 -49.949539 -0.673801 -5.248981 14.620094 1.963079 -0.531492 -11.883222 0.075648 -1.101520 -1.120610 -1.213723 -0.554208 5.456357 -1.918114 -2.654957 3.361579 3.929299 -3.523723 -6.393961 1.706072 -1.874811 -2.505806 0.000000 0.000000 0.000000 9.444312 2.042743 -54.883028 10.096350 -16.889798 1.503038 -1.009195 -5.381653 11.101393 0.000000 0.000000 0.000000 -7.125000 0.000000 0.000000 -19.540170 19.162459 -12.805403 0.000000 0.000000 0.000000 -5.874043 11.773050 32.497191 -12.301146 -20.254557 -2.205517 -9.662729 24.108888 43.608851 0.000000 0.000000 0.000000 7.125000 0.000000 0.000000 41.718795 69.878818 -26.333032
9.709283 17.480517 29.225670 -176.288474 -3.536961 -177.712090 0.000000 0.000000 0.000000 5.177252 -8.311216 13.694212 0.044085 -1.355355 -3.727251 2.471951 -11.362723 -28.325488 8.027823 16.139231 52.662147 0.000000 0.000000 0.000000 11.641505 15.716882 22.309737 -0.060868 1.591613 -4.378226 -4.754548 -18.065150 -49.647124 -0.688171 -5.303557 14.776385 2.159483 -0.461208 -11.689832 -0.003226 -1.026449 -1.211875 -1.390802 -0.516814 5.250401 -1.950187 -2.748119 3.924334 4.331651 -3.638788 -7.311126 1.885034 -1.966591 -2.911022 0.000000 0.000000 0.000000 9.916272 2.074405 -56.086072 10.448955 -17.438647 1.606952 -1.640959 -6.248794 11.075273 0.000000 0.000000 0.000000 -7.125000 0.000000 0.000000 -19.964527 19.192909 -13.108191 0.000000 0.000000 0.000000 -5.600638 12.327020 33.649718 -12.603098 -20.702625 -2.311277 -10.187919 22.122657 43.164097 0.000000 0.000000 0.000000 7.125000 0.000000 0.000000 40.312490 69.735183 -25.225913
9.708267 17.475260 29.223298 -176.146341 -3.369587 -177.835548 0.000000 0.000000 0.000000 5.226565 -8.340656 14.033766 0.046508 -1.391182 -3.825981 2.537760 -10.871789 -28.686602 7.769329 15.946033 51.726065 0.000000 0.000000 0.000000 11.637036 15.529228 22.118932 -0.053813 1.496211 -4.115305 -4.603540 -17.860928 -48.970239 -0.635873 -5.096710 14.185681 2.400390 -0.328280 -11.370375 -0.035469 -0.872007 -1.325037 -1.530567 -0.442042 4.956027 -2.108515 -2.791747 4.132689 4.590116 -3.695749 -7.623873 2.014209 -2.007915 -3.049126 0.000000 0.000000 0.000000 9.998766 2.077970 -55.758834 10.632340 -17.722398 1.662369 -2.518806 -5.777507 11.627239 0.000000 0.000000 0.000000 -7.125000 0.000000 0.000000 -20.478569 18.680839 -13.745933 0.000000 0.000000 0.000000 -5.424834 12.874439 34.762974 -12.877105 -21.106706 -2.408985 -10.668050 20.089585 42.611816 0.000000 0.000000 0.000000 7.125000 0.000000 0.000000 38.766241 69.489470 -23.956537
9.707075 17.466281 29.236221 -175.969960 -2.227941 -177.887301 0.000000 0.000000 0.000000 5.015525 -8.370138 14.960152 0.056557 -1.532136 -4.214391 2.786466 -10.742303 -30.081971 7.492691 15.732517 50.712947 0.000000 0.000000 0.000000 11.219445 15.415824 21.108590 -0.037718 1.245589 -3.425034 -4.024417 -18.034298 -46.888895 -0.441458 -4.234955 11.742828 2.728217 0.140589 -10.744575 -0.037129 -0.276977 -1.595216 -1.622784 -0.158844 4.350399 -2.350557 -2.773966 3.691028 4.652113 -3.674480 -6.621316 2.037970 -1.971037 -2.622202 0.000000 0.000000 0.000000 10.143726 2.358412 -56.219097 10.929677 -18.179951 1.754237 -2.388037 -5.393604 11.890390 0.000000 0.000000 0.000000 -7.125000 0.000000 0.000000 -20.360342 18.432760 -13.774924 0.000000 0.000000 0.000000 -5.329956 13.634982 36.599022 -13.219855 -21.607989 -2.534112 -11.435890 16.969464 41.897569 0.000000 0.000000 0.000000 7.125000 0.000000 0.000000 36.654330 69.202530 -22.302129
9.704459 17.452157 29.224320 -175.962337 -2.936183 -177.836354 0.000000 0.000000 0.000000 5.135773 -8.683324 14.680120 0.054618 -1.507723 -4.146880 2.703062 -10.405016 -29.616649 7.352123 15.621314 50.193792 0.000000 0.000000 0.000000 11.720760 15.780285 21.846659 -0.042440 1.325880 -3.646028 -4.336836 -18.077446 -48.106241 -0.459986 -4.343476 12.046121 2.672443 -0.030417 -10.904825 -0.070492 -0.504652 -1.623130 -1.658820 -0.272882 4.398580 -2.292382 -2.886614 3.513770 4.616464 -3.823538 -6.365963 2.008490 -2.040202 -2.498948 0.000000 0.000000 0.000000 10.395575 2.376085 -57.182490 11.288141 -18.728226 1.867565 -1.809131 -5.697204 11.796951 0.000000 0.000000 0.000000 -7.125000 0.000000 0.000000 -19.989522 18.515813 -13.449358 0.000000 0.000000 0.000000 -5.226291 14.011755 37.573994 -13.563032 -22.106453 -2.661596 -12.321981 15.944264 42.451033 0.000000 0.000000 0.000000 7.125000 0.000000 0.000000 36.747615 69.911130 -22.921691
9.700855 17.437025 29.211702 -176.143479 -3.774735 -177.757195 0.000000 0.000000 0.000000 5.040483 -9.007545 14.283696 0.051568 -1.465283 -4.030002 2.625014 -9.912916 -29.177366 7.147591 15.454819 49.430322 0.000000 0.000000 0.000000 11.926096 15.958237 22.571687 -0.050729 1.452835 -3.995773 -4.703978 -17.872278 -49.346355 -0.522883 -4.633974 12.867637 2.434526 -0.266062 -11.265338 -0.156811 -0.793020 -1.517707 -1.661427 -0.411556 4.696726 -2.199586 -2.964069 3.437227 4.565791 -3.927601 -6.568625 1.981307 -2.096638 -2.550561 0.000000 0.000000 0.000000 10.643097 2.109989 -58.032319 11.650830 -19.278844 1.985513 -1.689419 -6.444748 11.736203 0.000000 0.000000 0.000000 -7.125000 0.000000 0.000000 -19.917641 18.571814 -13.367628 0.000000 0.000000 0.000000 -5.081718 14.060519 37.877091 -13.879067 -22.561523 -2.781621 -13.180186 16.271072 43.763986 0.000000 0.000000 0.000000 7.125000 0.000000 0.000000 38.455511 71.173160 -25.111390
9.697336 17.419106 29.210805 -176.055633 -3.727637 -177.755983 0.000000 0.000000 0.000000 4.974201 -9.301841 14.536284 0.055970 -1.526236 -4.198099 2.720719 -10.321518 -29.720229 7.152242 15.458502 49.447389 0.000000 0.000000 0.000000 12.011458 16.043905 22.619464 -0.050552 1.450127 -3.988156 -4.704198 -17.658127 -49.216734 -0.518001 -4.611204 12.803162 2.507576 -0.225710 -11.261980 -0.103672 -0.751365 -1.517644 -1.640736 -0.390280 4.696698 -2.340565 -2.922201 3.461409 4.552282 -3.880221 -6.780820 2.006828 -2.072455 -2.626025 0.000000 0.000000 0.000000 10.735870 2.045137 -58.584060 12.058622 -19.892318 2.122367 -1.314370 -7.082804 12.245013 0.000000 0.000000 0.000000 -7.125000 0.000000 0.000000 -19.614889 18.079429 -13.353977 0.000000 0.000000 0.000000 -5.155280 14.142953 37.770828 -13.945850 -22.657187 -2.807241 -13.754256 16.736318 43.207692 0.000000 0.000000 0.000000 7.125000 0.000000 0.000000 36.693886 70.958940 -23.698024
